<svg width="198" height="198" viewBox="0 0 198 198" fill="none" xmlns="http://www.w3.org/2000/svg">
<g filter="url(#filter0_d_13_191)">
<path fill-rule="evenodd" clip-rule="evenodd" d="M40.0801 85.0375C37.0318 83.1874 36.0605 79.2164 37.9106 76.1681L80.7896 5.51943C82.6397 2.47113 86.6107 1.49981 89.659 3.34992L190.481 64.5419C193.529 66.392 194.5 70.3629 192.65 73.4112L149.771 144.06C147.921 147.108 143.95 148.08 140.902 146.229L112.937 129.256L115.17 125.577L143.135 142.55C144.151 143.167 145.475 142.843 146.091 141.827L188.97 71.178C189.587 70.1619 189.263 68.8382 188.247 68.2215L87.4257 7.02954C86.4096 6.41284 85.086 6.73661 84.4693 7.75271L41.5902 78.4014C40.9735 79.4175 41.2973 80.7412 42.3134 81.3579L85.7329 107.711L83.4996 111.39L40.0801 85.0375ZM104.131 118.877L96.7718 114.41L94.5385 118.09L101.898 122.557L104.131 118.877Z" fill="white"/>
<path fill-rule="evenodd" clip-rule="evenodd" d="M110.988 18.8127L63.1958 97.5566L58.7802 94.8766L106.572 16.1328L110.988 18.8127Z" fill="white"/>
<path fill-rule="evenodd" clip-rule="evenodd" d="M130.143 84.3141C135.2 75.982 132.545 65.1281 124.213 60.0712C115.881 55.0142 105.027 57.6691 99.9705 66.0011C94.9135 74.3331 97.5685 85.1871 105.9 90.244C114.233 95.301 125.086 92.6461 130.143 84.3141ZM134.559 86.994C141.096 76.2233 137.664 62.1927 126.893 55.6556C116.123 49.1185 102.092 52.5505 95.555 63.3212C89.0179 74.0918 92.4499 88.1225 103.221 94.6596C113.991 101.197 128.022 97.7646 134.559 86.994Z" fill="white"/>
<path fill-rule="evenodd" clip-rule="evenodd" d="M45.3215 123.103C48.4118 123.103 50.9171 120.598 50.9171 117.508C50.9171 114.417 48.4118 111.912 45.3215 111.912C42.2311 111.912 39.7259 114.417 39.7259 117.508C39.7259 120.598 42.2311 123.103 45.3215 123.103ZM45.3215 128.269C51.2645 128.269 56.0823 123.451 56.0823 117.508C56.0823 111.565 51.2645 106.747 45.3215 106.747C39.3784 106.747 34.5607 111.565 34.5607 117.508C34.5607 123.451 39.3784 128.269 45.3215 128.269Z" fill="white"/>
<path fill-rule="evenodd" clip-rule="evenodd" d="M66.8431 155.816C69.9334 155.816 72.4387 153.311 72.4387 150.221C72.4387 147.13 69.9334 144.625 66.8431 144.625C63.7527 144.625 61.2475 147.13 61.2475 150.221C61.2475 153.311 63.7527 155.816 66.8431 155.816ZM66.8431 160.981C72.7861 160.981 77.6039 156.164 77.6039 150.221C77.6039 144.278 72.7861 139.46 66.8431 139.46C60.9 139.46 56.0823 144.278 56.0823 150.221C56.0823 156.164 60.9 160.981 66.8431 160.981Z" fill="white"/>
<path fill-rule="evenodd" clip-rule="evenodd" d="M118.095 159.509C108.142 157.503 102.165 157.409 92.2794 159.505C87.5582 160.505 84.2782 163.015 80.6999 165.753C80.36 166.013 80.0174 166.275 79.6706 166.538C75.7317 169.526 71.3204 172.548 64.6887 172.464C58.1827 172.382 53.9339 169.155 50.189 166.153C50.0164 166.015 49.845 165.877 49.6745 165.74C46.0742 162.847 42.8798 160.28 38.122 159.525C37.2349 159.384 36.378 159.242 35.548 159.105C27.3474 157.75 21.7741 156.829 15.619 161.294C13.7912 162.619 12.3444 164.765 11.2347 167.456C10.1317 170.13 9.42768 173.183 8.9881 176.115C8.55006 179.037 8.3843 181.772 8.32893 183.781C8.31725 184.204 8.31051 184.595 8.30712 184.947H156.913C156.786 184.821 156.656 184.693 156.524 184.562C154.055 182.127 150.557 178.839 146.442 175.43C138.127 168.541 127.611 161.427 118.095 159.509ZM161.994 187.099C163.586 185.651 163.585 185.651 163.585 185.65L163.579 185.644L163.565 185.628L163.51 185.568C163.462 185.517 163.393 185.441 163.302 185.344C163.12 185.149 162.854 184.865 162.509 184.503C161.819 183.78 160.814 182.748 159.547 181.498C157.013 178.999 153.422 175.623 149.188 172.115C140.806 165.17 129.585 157.434 118.945 155.289C108.465 153.177 101.892 153.067 91.3869 155.294C85.6662 156.506 81.6349 159.604 78.1279 162.299C77.7699 162.574 77.4173 162.845 77.069 163.109C73.25 166.006 69.8399 168.225 64.7432 168.16C59.8234 168.098 56.5866 165.765 52.8811 162.794C52.6614 162.618 52.4398 162.44 52.216 162.259C48.7371 159.454 44.7183 156.214 38.7972 155.274C37.9079 155.132 37.0268 154.984 36.1528 154.836C28.1672 153.487 20.7737 152.238 13.0918 157.809C10.3776 159.778 8.53101 162.722 7.25558 165.815C5.97356 168.923 5.2008 172.346 4.73136 175.477C4.26038 178.618 4.08488 181.535 4.02625 183.662C3.99687 184.728 3.9967 185.601 4.00402 186.211C4.00769 186.517 4.01324 186.757 4.01797 186.923C4.02034 187.006 4.02251 187.071 4.02413 187.116L4.02613 187.169L4.02675 187.184L4.02701 187.191C4.02704 187.191 4.02707 187.192 6.17722 187.099L4.02707 187.192L4.11608 189.251H166.86L163.586 185.651L161.994 187.099Z" fill="white"/>
</g>
<defs>
<filter id="filter0_d_13_191" x="0" y="2.41193" width="197.588" height="194.839" filterUnits="userSpaceOnUse" color-interpolation-filters="sRGB">
<feFlood flood-opacity="0" result="BackgroundImageFix"/>
<feColorMatrix in="SourceAlpha" type="matrix" values="0 0 0 0 0 0 0 0 0 0 0 0 0 0 0 0 0 0 127 0" result="hardAlpha"/>
<feOffset dy="4"/>
<feGaussianBlur stdDeviation="2"/>
<feComposite in2="hardAlpha" operator="out"/>
<feColorMatrix type="matrix" values="0 0 0 0 0 0 0 0 0 0 0 0 0 0 0 0 0 0 0.25 0"/>
<feBlend mode="normal" in2="BackgroundImageFix" result="effect1_dropShadow_13_191"/>
<feBlend mode="normal" in="SourceGraphic" in2="effect1_dropShadow_13_191" result="shape"/>
</filter>
</defs>
</svg>
